<svg xmlns="http://www.w3.org/2000/svg" version="1.1" width="344" height="66">
<path d="M 2.878906 13.319336 L 2.878906 6.412109 L 6.729980 6.412109 L 6.729980 7.335938 L 3.738281 7.335938 L 3.738281 13.319336 Z " fill="rgb(0, 0, 0)" fill-opacity="1.000000" />
<path d="M 2.878906 39.319336 L 2.878906 25.300781 L 3.738281 25.300781 L 3.738281 39.319336 Z " fill="rgb(0, 0, 0)" fill-opacity="1.000000" />
<path d="M 2.878906 59.335938 L 2.878906 51.300781 L 3.738281 51.300781 L 3.738281 58.412109 L 6.729980 58.412109 L 6.729980 59.335938 Z " fill="rgb(0, 0, 0)" fill-opacity="1.000000" />
<path d="M 13.892578 59.335938 L 13.892578 58.412109 L 20.729980 58.412109 L 20.729980 59.335938 Z " fill="rgb(0, 0, 0)" fill-opacity="1.000000" />
<path d="M 27.892578 59.335938 L 27.892578 58.412109 L 34.729980 58.412109 L 34.729980 59.335938 Z " fill="rgb(0, 0, 0)" fill-opacity="1.000000" />
<path d="M 41.892578 59.335938 L 41.892578 58.412109 L 48.729980 58.412109 L 48.729980 59.335938 Z " fill="rgb(0, 0, 0)" fill-opacity="1.000000" />
<path d="M 55.892578 59.335938 L 55.892578 58.412109 L 62.729980 58.412109 L 62.729980 59.335938 Z " fill="rgb(0, 0, 0)" fill-opacity="1.000000" />
<path d="M 69.892578 59.335938 L 69.892578 58.412109 L 76.729980 58.412109 L 76.729980 59.335938 Z " fill="rgb(0, 0, 0)" fill-opacity="1.000000" />
<path d="M 83.892578 59.335938 L 83.892578 58.412109 L 90.729980 58.412109 L 90.729980 59.335938 Z " fill="rgb(0, 0, 0)" fill-opacity="1.000000" />
<path d="M 97.892578 59.335938 L 97.892578 58.412109 L 104.729980 58.412109 L 104.729980 59.335938 Z " fill="rgb(0, 0, 0)" fill-opacity="1.000000" />
<path d="M 111.892578 59.335938 L 111.892578 58.412109 L 118.729980 58.412109 L 118.729980 59.335938 Z " fill="rgb(0, 0, 0)" fill-opacity="1.000000" />
<path d="M 130.082031 58.213379 Q 130.500977 58.320801 130.796387 58.618896 Q 131.091797 58.916992 131.532227 59.808594 L 132.622559 62.000000 L 131.457031 62.000000 L 130.500977 59.975098 Q 130.087402 59.110352 129.757080 58.860596 Q 129.426758 58.610840 128.895020 58.610840 L 127.858398 58.610840 L 127.858398 62.000000 L 126.768066 62.000000 L 126.768066 53.980957 L 129.002441 53.980957 Q 130.323730 53.980957 131.027344 54.577148 Q 131.730957 55.173340 131.730957 56.301270 Q 131.730957 57.096191 131.298584 57.598389 Q 130.866211 58.100586 130.082031 58.213379 Z M 127.858398 54.872559 L 127.858398 57.719238 L 129.045410 57.719238 Q 129.824219 57.719238 130.205566 57.370117 Q 130.586914 57.020996 130.586914 56.301270 Q 130.586914 55.608398 130.181396 55.240479 Q 129.775879 54.872559 129.002441 54.872559 Z " fill="rgb(0, 0, 0)" fill-opacity="1.000000" />
<path d="M 134.047363 59.722656 L 134.047363 55.995117 L 135.035645 55.995117 L 135.035645 59.722656 Q 135.035645 60.533691 135.322998 60.915039 Q 135.610352 61.296387 136.211914 61.296387 Q 136.910156 61.296387 137.280762 60.804932 Q 137.651367 60.313477 137.651367 59.395020 L 137.651367 55.995117 L 138.645020 55.995117 L 138.645020 62.000000 L 137.651367 62.000000 L 137.651367 61.097656 Q 137.388184 61.618652 136.934326 61.887207 Q 136.480469 62.155762 135.873535 62.155762 Q 134.949707 62.155762 134.498535 61.551514 Q 134.047363 60.947266 134.047363 59.722656 Z " fill="rgb(0, 0, 0)" fill-opacity="1.000000" />
<path d="M 145.645020 58.272461 L 145.645020 62.000000 L 144.651367 62.000000 L 144.651367 58.272461 Q 144.651367 57.461426 144.366699 57.080078 Q 144.082031 56.698730 143.475098 56.698730 Q 142.782227 56.698730 142.408936 57.190186 Q 142.035645 57.681641 142.035645 58.600098 L 142.035645 62.000000 L 141.047363 62.000000 L 141.047363 55.984375 L 142.035645 55.984375 L 142.035645 56.886719 Q 142.298828 56.371094 142.750000 56.105225 Q 143.201172 55.839355 143.818848 55.839355 Q 144.737305 55.839355 145.191162 56.443604 Q 145.645020 57.047852 145.645020 58.272461 Z " fill="rgb(0, 0, 0)" fill-opacity="1.000000" />
<path d="M 152.645020 58.272461 L 152.645020 62.000000 L 151.651367 62.000000 L 151.651367 58.272461 Q 151.651367 57.461426 151.366699 57.080078 Q 151.082031 56.698730 150.475098 56.698730 Q 149.782227 56.698730 149.408936 57.190186 Q 149.035645 57.681641 149.035645 58.600098 L 149.035645 62.000000 L 148.047363 62.000000 L 148.047363 55.984375 L 149.035645 55.984375 L 149.035645 56.886719 Q 149.298828 56.371094 149.750000 56.105225 Q 150.201172 55.839355 150.818848 55.839355 Q 151.737305 55.839355 152.191162 56.443604 Q 152.645020 57.047852 152.645020 58.272461 Z " fill="rgb(0, 0, 0)" fill-opacity="1.000000" />
<path d="M 157.770508 58.976074 L 157.442871 58.976074 Q 156.578125 58.976074 156.140381 59.279541 Q 155.702637 59.583008 155.702637 60.184570 Q 155.702637 60.727051 156.030273 61.027832 Q 156.357910 61.328613 156.937988 61.328613 Q 157.754395 61.328613 158.221680 60.761963 Q 158.688965 60.195312 158.694336 59.196289 L 158.694336 58.976074 Z M 159.687988 58.567871 L 159.687988 62.000000 L 158.694336 62.000000 L 158.694336 61.108398 Q 158.377441 61.645508 157.896729 61.900635 Q 157.416016 62.155762 156.728516 62.155762 Q 155.810059 62.155762 155.262207 61.637451 Q 154.714355 61.119141 154.714355 60.249023 Q 154.714355 59.244629 155.388428 58.723633 Q 156.062500 58.202637 157.367676 58.202637 L 158.694336 58.202637 L 158.694336 58.046875 Q 158.688965 57.327148 158.329102 57.002197 Q 157.969238 56.677246 157.179688 56.677246 Q 156.674805 56.677246 156.159180 56.822266 Q 155.643555 56.967285 155.154785 57.246582 L 155.154785 56.258301 Q 155.702637 56.048828 156.204834 55.944092 Q 156.707031 55.839355 157.179688 55.839355 Q 157.926270 55.839355 158.455322 56.059570 Q 158.984375 56.279785 159.312012 56.720215 Q 159.516113 56.988770 159.602051 57.383545 Q 159.687988 57.778320 159.687988 58.567871 Z " fill="rgb(0, 0, 0)" fill-opacity="1.000000" />
<path d="M 165.930664 58.997559 Q 165.930664 57.848145 165.565430 57.262695 Q 165.200195 56.677246 164.485840 56.677246 Q 163.766113 56.677246 163.395508 57.265381 Q 163.024902 57.853516 163.024902 58.997559 Q 163.024902 60.136230 163.395508 60.727051 Q 163.766113 61.317871 164.485840 61.317871 Q 165.200195 61.317871 165.565430 60.732422 Q 165.930664 60.146973 165.930664 58.997559 Z M 163.024902 56.752441 Q 163.261230 56.312012 163.677490 56.075684 Q 164.093750 55.839355 164.641602 55.839355 Q 165.726562 55.839355 166.349609 56.674561 Q 166.972656 57.509766 166.972656 58.976074 Q 166.972656 60.463867 166.346924 61.309814 Q 165.721191 62.155762 164.630859 62.155762 Q 164.093750 62.155762 163.682861 61.922119 Q 163.271973 61.688477 163.024902 61.242676 L 163.024902 62.000000 L 162.036621 62.000000 L 162.036621 53.642578 L 163.024902 53.642578 Z " fill="rgb(0, 0, 0)" fill-opacity="1.000000" />
<path d="M 171.861816 59.824707 Q 171.861816 60.490723 172.106201 60.829102 Q 172.350586 61.167480 172.828613 61.167480 L 173.983398 61.167480 L 173.983398 62.000000 L 172.731934 62.000000 Q 171.845703 62.000000 171.359619 61.433350 Q 170.873535 60.866699 170.873535 59.824707 L 170.873535 54.383789 L 169.289062 54.383789 L 169.289062 53.610352 L 171.861816 53.610352 Z " fill="rgb(0, 0, 0)" fill-opacity="1.000000" />
<path d="M 181.015625 58.498047 L 181.015625 58.981445 L 176.734863 58.981445 L 176.734863 59.013672 Q 176.691895 60.243652 177.204834 60.780762 Q 177.717773 61.317871 178.652344 61.317871 Q 179.125000 61.317871 179.640625 61.167480 Q 180.156250 61.017090 180.741699 60.710938 L 180.741699 61.693848 Q 180.177734 61.924805 179.654053 62.040283 Q 179.130371 62.155762 178.641602 62.155762 Q 177.239746 62.155762 176.450195 61.315186 Q 175.660645 60.474609 175.660645 58.997559 Q 175.660645 57.558105 176.434082 56.698730 Q 177.207520 55.839355 178.496582 55.839355 Q 179.645996 55.839355 180.309326 56.618164 Q 180.972656 57.396973 181.015625 58.498047 Z M 180.027344 58.208008 Q 179.962891 57.584961 179.573486 57.131104 Q 179.184082 56.677246 178.453613 56.677246 Q 177.739258 56.677246 177.277344 57.149902 Q 176.815430 57.622559 176.772461 58.213379 Z " fill="rgb(0, 0, 0)" fill-opacity="1.000000" />
<path d="M 187.929688 61.339355 Q 187.494629 61.742188 186.949463 61.948975 Q 186.404297 62.155762 185.770508 62.155762 Q 184.245117 62.155762 183.396484 61.062744 Q 182.547852 59.969727 182.547852 57.998535 Q 182.547852 56.032715 183.407227 54.934326 Q 184.266602 53.835938 185.797363 53.835938 Q 186.302246 53.835938 186.764160 53.978271 Q 187.226074 54.120605 187.655762 54.410645 L 187.655762 55.522461 Q 187.220703 55.108887 186.764160 54.912842 Q 186.307617 54.716797 185.797363 54.716797 Q 184.739258 54.716797 184.210205 55.535889 Q 183.681152 56.354980 183.681152 57.998535 Q 183.681152 59.668945 184.194092 60.471924 Q 184.707031 61.274902 185.770508 61.274902 Q 186.130371 61.274902 186.401611 61.191650 Q 186.672852 61.108398 186.893066 60.931152 L 186.893066 58.777344 L 185.727539 58.777344 L 185.727539 57.885742 L 187.929688 57.885742 Z " fill="rgb(0, 0, 0)" fill-opacity="1.000000" />
<path d="M 195.203613 57.225098 Q 194.886719 56.978027 194.559082 56.865234 Q 194.231445 56.752441 193.839355 56.752441 Q 192.915527 56.752441 192.426758 57.332520 Q 191.937988 57.912598 191.937988 59.008301 L 191.937988 62.000000 L 190.944336 62.000000 L 190.944336 55.984375 L 191.937988 55.984375 L 191.937988 57.160645 Q 192.185059 56.521484 192.697998 56.180420 Q 193.210938 55.839355 193.914551 55.839355 Q 194.279785 55.839355 194.596680 55.930664 Q 194.913574 56.021973 195.203613 56.215332 Z " fill="rgb(0, 0, 0)" fill-opacity="1.000000" />
<path d="M 199.770508 58.976074 L 199.442871 58.976074 Q 198.578125 58.976074 198.140381 59.279541 Q 197.702637 59.583008 197.702637 60.184570 Q 197.702637 60.727051 198.030273 61.027832 Q 198.357910 61.328613 198.937988 61.328613 Q 199.754395 61.328613 200.221680 60.761963 Q 200.688965 60.195312 200.694336 59.196289 L 200.694336 58.976074 Z M 201.687988 58.567871 L 201.687988 62.000000 L 200.694336 62.000000 L 200.694336 61.108398 Q 200.377441 61.645508 199.896729 61.900635 Q 199.416016 62.155762 198.728516 62.155762 Q 197.810059 62.155762 197.262207 61.637451 Q 196.714355 61.119141 196.714355 60.249023 Q 196.714355 59.244629 197.388428 58.723633 Q 198.062500 58.202637 199.367676 58.202637 L 200.694336 58.202637 L 200.694336 58.046875 Q 200.688965 57.327148 200.329102 57.002197 Q 199.969238 56.677246 199.179688 56.677246 Q 198.674805 56.677246 198.159180 56.822266 Q 197.643555 56.967285 197.154785 57.246582 L 197.154785 56.258301 Q 197.702637 56.048828 198.204834 55.944092 Q 198.707031 55.839355 199.179688 55.839355 Q 199.926270 55.839355 200.455322 56.059570 Q 200.984375 56.279785 201.312012 56.720215 Q 201.516113 56.988770 201.602051 57.383545 Q 201.687988 57.778320 201.687988 58.567871 Z " fill="rgb(0, 0, 0)" fill-opacity="1.000000" />
<path d="M 205.014160 61.242676 L 205.014160 64.288086 L 204.020508 64.288086 L 204.020508 55.984375 L 205.014160 55.984375 L 205.014160 56.752441 Q 205.261230 56.306641 205.672119 56.072998 Q 206.083008 55.839355 206.620117 55.839355 Q 207.710449 55.839355 208.330811 56.682617 Q 208.951172 57.525879 208.951172 59.019043 Q 208.951172 60.485352 208.328125 61.320557 Q 207.705078 62.155762 206.620117 62.155762 Q 206.072266 62.155762 205.661377 61.922119 Q 205.250488 61.688477 205.014160 61.242676 Z M 207.914551 58.997559 Q 207.914551 57.848145 207.552002 57.262695 Q 207.189453 56.677246 206.475098 56.677246 Q 205.755371 56.677246 205.384766 57.265381 Q 205.014160 57.853516 205.014160 58.997559 Q 205.014160 60.136230 205.384766 60.727051 Q 205.755371 61.317871 206.475098 61.317871 Q 207.189453 61.317871 207.552002 60.732422 Q 207.914551 60.146973 207.914551 58.997559 Z " fill="rgb(0, 0, 0)" fill-opacity="1.000000" />
<path d="M 215.645020 58.272461 L 215.645020 62.000000 L 214.651367 62.000000 L 214.651367 58.272461 Q 214.651367 57.461426 214.366699 57.080078 Q 214.082031 56.698730 213.475098 56.698730 Q 212.782227 56.698730 212.408936 57.190186 Q 212.035645 57.681641 212.035645 58.600098 L 212.035645 62.000000 L 211.047363 62.000000 L 211.047363 53.642578 L 212.035645 53.642578 L 212.035645 56.886719 Q 212.298828 56.371094 212.750000 56.105225 Q 213.201172 55.839355 213.818848 55.839355 Q 214.737305 55.839355 215.191162 56.443604 Q 215.645020 57.047852 215.645020 58.272461 Z " fill="rgb(0, 0, 0)" fill-opacity="1.000000" />
<path d="M 223.892578 59.335938 L 223.892578 58.412109 L 230.729980 58.412109 L 230.729980 59.335938 Z " fill="rgb(0, 0, 0)" fill-opacity="1.000000" />
<path d="M 237.892578 59.335938 L 237.892578 58.412109 L 244.729980 58.412109 L 244.729980 59.335938 Z " fill="rgb(0, 0, 0)" fill-opacity="1.000000" />
<path d="M 251.892578 59.335938 L 251.892578 58.412109 L 258.729980 58.412109 L 258.729980 59.335938 Z " fill="rgb(0, 0, 0)" fill-opacity="1.000000" />
<path d="M 265.892578 59.335938 L 265.892578 58.412109 L 272.729980 58.412109 L 272.729980 59.335938 Z " fill="rgb(0, 0, 0)" fill-opacity="1.000000" />
<path d="M 279.892578 59.335938 L 279.892578 58.412109 L 286.729980 58.412109 L 286.729980 59.335938 Z " fill="rgb(0, 0, 0)" fill-opacity="1.000000" />
<path d="M 293.892578 59.335938 L 293.892578 58.412109 L 300.729980 58.412109 L 300.729980 59.335938 Z " fill="rgb(0, 0, 0)" fill-opacity="1.000000" />
<path d="M 307.892578 59.335938 L 307.892578 58.412109 L 314.729980 58.412109 L 314.729980 59.335938 Z " fill="rgb(0, 0, 0)" fill-opacity="1.000000" />
<path d="M 321.892578 59.335938 L 321.892578 58.412109 L 328.729980 58.412109 L 328.729980 59.335938 Z " fill="rgb(0, 0, 0)" fill-opacity="1.000000" />
<path d="M 335.892578 59.335938 L 335.892578 58.412109 L 338.878906 58.412109 L 338.878906 51.300781 L 339.738281 51.300781 L 339.738281 59.335938 Z " fill="rgb(0, 0, 0)" fill-opacity="1.000000" />
<path d="M 16.878906 46.335938 L 16.878906 38.300781 L 17.738281 38.300781 L 17.738281 45.412109 L 20.729980 45.412109 L 20.729980 46.335938 Z " fill="rgb(0, 0, 0)" fill-opacity="1.000000" />
<path d="M 20.892578 46.335938 L 20.892578 45.412109 L 27.729980 45.412109 L 27.729980 46.335938 Z " fill="rgb(0, 0, 0)" fill-opacity="1.000000" />
<path d="M 27.892578 46.335938 L 27.892578 45.412109 L 34.729980 45.412109 L 34.729980 46.335938 Z " fill="rgb(0, 0, 0)" fill-opacity="1.000000" />
<path d="M 34.892578 46.335938 L 34.892578 45.412109 L 41.729980 45.412109 L 41.729980 46.335938 Z " fill="rgb(0, 0, 0)" fill-opacity="1.000000" />
<path d="M 41.892578 46.335938 L 41.892578 45.412109 L 48.729980 45.412109 L 48.729980 46.335938 Z " fill="rgb(0, 0, 0)" fill-opacity="1.000000" />
<path d="M 48.892578 46.335938 L 48.892578 45.412109 L 55.729980 45.412109 L 55.729980 46.335938 Z " fill="rgb(0, 0, 0)" fill-opacity="1.000000" />
<path d="M 55.892578 46.335938 L 55.892578 45.412109 L 62.729980 45.412109 L 62.729980 46.335938 Z " fill="rgb(0, 0, 0)" fill-opacity="1.000000" />
<path d="M 62.892578 46.335938 L 62.892578 45.412109 L 69.729980 45.412109 L 69.729980 46.335938 Z " fill="rgb(0, 0, 0)" fill-opacity="1.000000" />
<path d="M 69.892578 46.335938 L 69.892578 45.412109 L 76.729980 45.412109 L 76.729980 46.335938 Z " fill="rgb(0, 0, 0)" fill-opacity="1.000000" />
<path d="M 76.892578 46.335938 L 76.892578 45.412109 L 79.878906 45.412109 L 79.878906 38.300781 L 80.738281 38.300781 L 80.738281 46.335938 Z " fill="rgb(0, 0, 0)" fill-opacity="1.000000" />
<path d="M 142.878906 46.335938 L 142.878906 38.300781 L 143.738281 38.300781 L 143.738281 45.412109 L 146.729980 45.412109 L 146.729980 46.335938 Z " fill="rgb(0, 0, 0)" fill-opacity="1.000000" />
<path d="M 146.892578 46.335938 L 146.892578 45.412109 L 153.729980 45.412109 L 153.729980 46.335938 Z " fill="rgb(0, 0, 0)" fill-opacity="1.000000" />
<path d="M 153.892578 46.335938 L 153.892578 45.412109 L 160.729980 45.412109 L 160.729980 46.335938 Z " fill="rgb(0, 0, 0)" fill-opacity="1.000000" />
<path d="M 160.892578 46.335938 L 160.892578 45.412109 L 167.729980 45.412109 L 167.729980 46.335938 Z " fill="rgb(0, 0, 0)" fill-opacity="1.000000" />
<path d="M 167.892578 46.335938 L 167.892578 45.412109 L 174.729980 45.412109 L 174.729980 46.335938 Z " fill="rgb(0, 0, 0)" fill-opacity="1.000000" />
<path d="M 174.892578 46.335938 L 174.892578 45.412109 L 181.729980 45.412109 L 181.729980 46.335938 Z " fill="rgb(0, 0, 0)" fill-opacity="1.000000" />
<path d="M 181.892578 46.335938 L 181.892578 45.412109 L 188.729980 45.412109 L 188.729980 46.335938 Z " fill="rgb(0, 0, 0)" fill-opacity="1.000000" />
<path d="M 188.892578 46.335938 L 188.892578 45.412109 L 195.729980 45.412109 L 195.729980 46.335938 Z " fill="rgb(0, 0, 0)" fill-opacity="1.000000" />
<path d="M 195.892578 46.335938 L 195.892578 45.412109 L 202.729980 45.412109 L 202.729980 46.335938 Z " fill="rgb(0, 0, 0)" fill-opacity="1.000000" />
<path d="M 202.892578 46.335938 L 202.892578 45.412109 L 205.878906 45.412109 L 205.878906 38.300781 L 206.738281 38.300781 L 206.738281 46.335938 Z " fill="rgb(0, 0, 0)" fill-opacity="1.000000" />
<path d="M 261.878906 46.335938 L 261.878906 38.300781 L 262.738281 38.300781 L 262.738281 45.412109 L 265.729980 45.412109 L 265.729980 46.335938 Z " fill="rgb(0, 0, 0)" fill-opacity="1.000000" />
<path d="M 265.892578 46.335938 L 265.892578 45.412109 L 272.729980 45.412109 L 272.729980 46.335938 Z " fill="rgb(0, 0, 0)" fill-opacity="1.000000" />
<path d="M 272.892578 46.335938 L 272.892578 45.412109 L 279.729980 45.412109 L 279.729980 46.335938 Z " fill="rgb(0, 0, 0)" fill-opacity="1.000000" />
<path d="M 279.892578 46.335938 L 279.892578 45.412109 L 286.729980 45.412109 L 286.729980 46.335938 Z " fill="rgb(0, 0, 0)" fill-opacity="1.000000" />
<path d="M 286.892578 46.335938 L 286.892578 45.412109 L 293.729980 45.412109 L 293.729980 46.335938 Z " fill="rgb(0, 0, 0)" fill-opacity="1.000000" />
<path d="M 293.892578 46.335938 L 293.892578 45.412109 L 300.729980 45.412109 L 300.729980 46.335938 Z " fill="rgb(0, 0, 0)" fill-opacity="1.000000" />
<path d="M 300.892578 46.335938 L 300.892578 45.412109 L 307.729980 45.412109 L 307.729980 46.335938 Z " fill="rgb(0, 0, 0)" fill-opacity="1.000000" />
<path d="M 307.892578 46.335938 L 307.892578 45.412109 L 314.729980 45.412109 L 314.729980 46.335938 Z " fill="rgb(0, 0, 0)" fill-opacity="1.000000" />
<path d="M 314.892578 46.335938 L 314.892578 45.412109 L 321.729980 45.412109 L 321.729980 46.335938 Z " fill="rgb(0, 0, 0)" fill-opacity="1.000000" />
<path d="M 321.892578 46.335938 L 321.892578 45.412109 L 324.878906 45.412109 L 324.878906 38.300781 L 325.738281 38.300781 L 325.738281 46.335938 Z " fill="rgb(0, 0, 0)" fill-opacity="1.000000" />
<path d="M 16.878906 39.319336 L 16.878906 25.300781 L 17.738281 25.300781 L 17.738281 39.319336 Z " fill="rgb(0, 0, 0)" fill-opacity="1.000000" />
<path d="M 33.435547 28.254883 L 33.435547 29.355957 Q 32.941406 29.039062 32.444580 28.877930 Q 31.947754 28.716797 31.442871 28.716797 Q 30.674805 28.716797 30.229004 29.073975 Q 29.783203 29.431152 29.783203 30.038086 Q 29.783203 30.569824 30.075928 30.849121 Q 30.368652 31.128418 31.168945 31.316406 L 31.738281 31.445312 Q 32.866211 31.708496 33.381836 32.272461 Q 33.897461 32.836426 33.897461 33.808594 Q 33.897461 34.952637 33.188477 35.554199 Q 32.479492 36.155762 31.125977 36.155762 Q 30.562012 36.155762 29.992676 36.034912 Q 29.423340 35.914062 28.848633 35.672363 L 28.848633 34.517578 Q 29.466309 34.909668 30.016846 35.092285 Q 30.567383 35.274902 31.125977 35.274902 Q 31.947754 35.274902 32.404297 34.906982 Q 32.860840 34.539062 32.860840 33.878418 Q 32.860840 33.276855 32.546631 32.959961 Q 32.232422 32.643066 31.453613 32.471191 L 30.873535 32.336914 Q 29.756348 32.084473 29.251465 31.574219 Q 28.746582 31.063965 28.746582 30.204590 Q 28.746582 29.130371 29.468994 28.483154 Q 30.191406 27.835938 31.389160 27.835938 Q 31.851074 27.835938 32.361328 27.940674 Q 32.871582 28.045410 33.435547 28.254883 Z " fill="rgb(0, 0, 0)" fill-opacity="1.000000" />
<path d="M 38.308594 30.677246 Q 37.556641 30.677246 37.169922 31.262695 Q 36.783203 31.848145 36.783203 32.997559 Q 36.783203 34.141602 37.169922 34.729736 Q 37.556641 35.317871 38.308594 35.317871 Q 39.065918 35.317871 39.452637 34.729736 Q 39.839355 34.141602 39.839355 32.997559 Q 39.839355 31.848145 39.452637 31.262695 Q 39.065918 30.677246 38.308594 30.677246 Z M 38.308594 29.839355 Q 39.560059 29.839355 40.223389 30.650391 Q 40.886719 31.461426 40.886719 32.997559 Q 40.886719 34.539062 40.226074 35.347412 Q 39.565430 36.155762 38.308594 36.155762 Q 37.057129 36.155762 36.396484 35.347412 Q 35.735840 34.539062 35.735840 32.997559 Q 35.735840 31.461426 36.396484 30.650391 Q 37.057129 29.839355 38.308594 29.839355 Z " fill="rgb(0, 0, 0)" fill-opacity="1.000000" />
<path d="M 43.047363 33.722656 L 43.047363 29.995117 L 44.035645 29.995117 L 44.035645 33.722656 Q 44.035645 34.533691 44.322998 34.915039 Q 44.610352 35.296387 45.211914 35.296387 Q 45.910156 35.296387 46.280762 34.804932 Q 46.651367 34.313477 46.651367 33.395020 L 46.651367 29.995117 L 47.645020 29.995117 L 47.645020 36.000000 L 46.651367 36.000000 L 46.651367 35.097656 Q 46.388184 35.618652 45.934326 35.887207 Q 45.480469 36.155762 44.873535 36.155762 Q 43.949707 36.155762 43.498535 35.551514 Q 43.047363 34.947266 43.047363 33.722656 Z " fill="rgb(0, 0, 0)" fill-opacity="1.000000" />
<path d="M 55.203613 31.225098 Q 54.886719 30.978027 54.559082 30.865234 Q 54.231445 30.752441 53.839355 30.752441 Q 52.915527 30.752441 52.426758 31.332520 Q 51.937988 31.912598 51.937988 33.008301 L 51.937988 36.000000 L 50.944336 36.000000 L 50.944336 29.984375 L 51.937988 29.984375 L 51.937988 31.160645 Q 52.185059 30.521484 52.697998 30.180420 Q 53.210938 29.839355 53.914551 29.839355 Q 54.279785 29.839355 54.596680 29.930664 Q 54.913574 30.021973 55.203613 30.215332 Z " fill="rgb(0, 0, 0)" fill-opacity="1.000000" />
<path d="M 61.698730 35.693848 Q 61.301270 35.924805 60.879639 36.040283 Q 60.458008 36.155762 60.017578 36.155762 Q 58.621094 36.155762 57.834229 35.317871 Q 57.047363 34.479980 57.047363 32.997559 Q 57.047363 31.515137 57.834229 30.677246 Q 58.621094 29.839355 60.017578 29.839355 Q 60.452637 29.839355 60.866211 29.952148 Q 61.279785 30.064941 61.698730 30.301270 L 61.698730 31.337891 Q 61.306641 30.988770 60.911865 30.833008 Q 60.517090 30.677246 60.017578 30.677246 Q 59.088379 30.677246 58.588867 31.278809 Q 58.089355 31.880371 58.089355 32.997559 Q 58.089355 34.109375 58.591553 34.713623 Q 59.093750 35.317871 60.017578 35.317871 Q 60.533203 35.317871 60.941406 35.159424 Q 61.349609 35.000977 61.698730 34.667969 Z " fill="rgb(0, 0, 0)" fill-opacity="1.000000" />
<path d="M 69.015625 32.498047 L 69.015625 32.981445 L 64.734863 32.981445 L 64.734863 33.013672 Q 64.691895 34.243652 65.204834 34.780762 Q 65.717773 35.317871 66.652344 35.317871 Q 67.125000 35.317871 67.640625 35.167480 Q 68.156250 35.017090 68.741699 34.710938 L 68.741699 35.693848 Q 68.177734 35.924805 67.654053 36.040283 Q 67.130371 36.155762 66.641602 36.155762 Q 65.239746 36.155762 64.450195 35.315186 Q 63.660645 34.474609 63.660645 32.997559 Q 63.660645 31.558105 64.434082 30.698730 Q 65.207520 29.839355 66.496582 29.839355 Q 67.645996 29.839355 68.309326 30.618164 Q 68.972656 31.396973 69.015625 32.498047 Z M 68.027344 32.208008 Q 67.962891 31.584961 67.573486 31.131104 Q 67.184082 30.677246 66.453613 30.677246 Q 65.739258 30.677246 65.277344 31.149902 Q 64.815430 31.622559 64.772461 32.213379 Z " fill="rgb(0, 0, 0)" fill-opacity="1.000000" />
<path d="M 77.687500 33.142578 Q 77.687500 34.657227 78.998047 35.409180 Q 79.653320 35.790527 80.308594 35.790527 Q 80.963867 35.790527 81.619141 35.409180 Q 82.935059 34.651855 82.935059 33.142578 Q 82.935059 31.633301 81.619141 30.875977 Q 80.963867 30.494629 80.308594 30.494629 Q 79.653320 30.494629 78.998047 30.875977 Q 77.687500 31.627930 77.687500 33.142578 Z M 77.032227 33.142578 Q 77.032227 31.251953 78.670410 30.306641 Q 79.486816 29.833984 80.308594 29.833984 Q 81.125000 29.833984 81.946777 30.306641 Q 83.590332 31.251953 83.590332 33.142578 Q 83.590332 35.033203 81.946777 35.978516 Q 81.125000 36.451172 80.308594 36.451172 Q 79.486816 36.451172 78.670410 35.978516 Q 77.032227 35.033203 77.032227 33.142578 Z " fill="rgb(0, 0, 0)" fill-opacity="1.000000" />
<path d="M 83.892578 33.335938 L 83.892578 32.412109 L 90.729980 32.412109 L 90.729980 33.335938 Z " fill="rgb(0, 0, 0)" fill-opacity="1.000000" />
<path d="M 90.892578 33.335938 L 90.892578 32.412109 L 97.729980 32.412109 L 97.729980 33.335938 Z " fill="rgb(0, 0, 0)" fill-opacity="1.000000" />
<path d="M 98.537109 29.984375 L 99.562988 29.984375 L 101.308594 35.033203 L 103.059570 29.984375 L 104.085449 29.984375 L 101.947754 36.000000 L 100.674805 36.000000 Z " fill="rgb(0, 0, 0)" fill-opacity="1.000000" />
<path d="M 106.697266 30.005859 L 109.227051 30.005859 L 109.227051 35.231934 L 111.187500 35.231934 L 111.187500 36.000000 L 106.278320 36.000000 L 106.278320 35.231934 L 108.238770 35.231934 L 108.238770 30.773926 L 106.697266 30.773926 Z M 108.238770 27.669434 L 109.227051 27.669434 L 109.227051 28.915527 L 108.238770 28.915527 Z " fill="rgb(0, 0, 0)" fill-opacity="1.000000" />
<path d="M 115.770508 32.976074 L 115.442871 32.976074 Q 114.578125 32.976074 114.140381 33.279541 Q 113.702637 33.583008 113.702637 34.184570 Q 113.702637 34.727051 114.030273 35.027832 Q 114.357910 35.328613 114.937988 35.328613 Q 115.754395 35.328613 116.221680 34.761963 Q 116.688965 34.195312 116.694336 33.196289 L 116.694336 32.976074 Z M 117.687988 32.567871 L 117.687988 36.000000 L 116.694336 36.000000 L 116.694336 35.108398 Q 116.377441 35.645508 115.896729 35.900635 Q 115.416016 36.155762 114.728516 36.155762 Q 113.810059 36.155762 113.262207 35.637451 Q 112.714355 35.119141 112.714355 34.249023 Q 112.714355 33.244629 113.388428 32.723633 Q 114.062500 32.202637 115.367676 32.202637 L 116.694336 32.202637 L 116.694336 32.046875 Q 116.688965 31.327148 116.329102 31.002197 Q 115.969238 30.677246 115.179688 30.677246 Q 114.674805 30.677246 114.159180 30.822266 Q 113.643555 30.967285 113.154785 31.246582 L 113.154785 30.258301 Q 113.702637 30.048828 114.204834 29.944092 Q 114.707031 29.839355 115.179688 29.839355 Q 115.926270 29.839355 116.455322 30.059570 Q 116.984375 30.279785 117.312012 30.720215 Q 117.516113 30.988770 117.602051 31.383545 Q 117.687988 31.778320 117.687988 32.567871 Z " fill="rgb(0, 0, 0)" fill-opacity="1.000000" />
<path d="M 118.892578 33.335938 L 118.892578 32.412109 L 125.729980 32.412109 L 125.729980 33.335938 Z " fill="rgb(0, 0, 0)" fill-opacity="1.000000" />
<path d="M 125.892578 33.335938 L 125.892578 32.412109 L 132.729980 32.412109 L 132.729980 33.335938 Z " fill="rgb(0, 0, 0)" fill-opacity="1.000000" />
<path d="M 133.032227 36.418945 L 133.032227 29.866211 L 139.590332 33.142578 Z " fill="rgb(0, 0, 0)" fill-opacity="1.000000" />
<path d="M 140.687500 33.142578 Q 140.687500 34.657227 141.998047 35.409180 Q 142.653320 35.790527 143.308594 35.790527 Q 143.963867 35.790527 144.619141 35.409180 Q 145.935059 34.651855 145.935059 33.142578 Q 145.935059 31.633301 144.619141 30.875977 Q 143.963867 30.494629 143.308594 30.494629 Q 142.653320 30.494629 141.998047 30.875977 Q 140.687500 31.627930 140.687500 33.142578 Z M 140.032227 33.142578 Q 140.032227 31.251953 141.670410 30.306641 Q 142.486816 29.833984 143.308594 29.833984 Q 144.125000 29.833984 144.946777 30.306641 Q 146.590332 31.251953 146.590332 33.142578 Q 146.590332 35.033203 144.946777 35.978516 Q 144.125000 36.451172 143.308594 36.451172 Q 142.486816 36.451172 141.670410 35.978516 Q 140.032227 35.033203 140.032227 33.142578 Z " fill="rgb(0, 0, 0)" fill-opacity="1.000000" />
<path d="M 162.251465 27.980957 L 166.972656 27.980957 L 166.972656 28.894043 L 163.341797 28.894043 L 163.341797 31.042480 L 166.634277 31.042480 L 166.634277 31.955566 L 163.341797 31.955566 L 163.341797 36.000000 L 162.251465 36.000000 Z " fill="rgb(0, 0, 0)" fill-opacity="1.000000" />
<path d="M 171.861816 33.824707 Q 171.861816 34.490723 172.106201 34.829102 Q 172.350586 35.167480 172.828613 35.167480 L 173.983398 35.167480 L 173.983398 36.000000 L 172.731934 36.000000 Q 171.845703 36.000000 171.359619 35.433350 Q 170.873535 34.866699 170.873535 33.824707 L 170.873535 28.383789 L 169.289062 28.383789 L 169.289062 27.610352 L 171.861816 27.610352 Z " fill="rgb(0, 0, 0)" fill-opacity="1.000000" />
<path d="M 178.308594 30.677246 Q 177.556641 30.677246 177.169922 31.262695 Q 176.783203 31.848145 176.783203 32.997559 Q 176.783203 34.141602 177.169922 34.729736 Q 177.556641 35.317871 178.308594 35.317871 Q 179.065918 35.317871 179.452637 34.729736 Q 179.839355 34.141602 179.839355 32.997559 Q 179.839355 31.848145 179.452637 31.262695 Q 179.065918 30.677246 178.308594 30.677246 Z M 178.308594 29.839355 Q 179.560059 29.839355 180.223389 30.650391 Q 180.886719 31.461426 180.886719 32.997559 Q 180.886719 34.539062 180.226074 35.347412 Q 179.565430 36.155762 178.308594 36.155762 Q 177.057129 36.155762 176.396484 35.347412 Q 175.735840 34.539062 175.735840 32.997559 Q 175.735840 31.461426 176.396484 30.650391 Q 177.057129 29.839355 178.308594 29.839355 Z " fill="rgb(0, 0, 0)" fill-opacity="1.000000" />
<path d="M 182.000000 29.984375 L 182.977539 29.984375 L 184.024902 34.845215 L 184.884277 31.740723 L 185.727539 31.740723 L 186.597656 34.845215 L 187.645020 29.984375 L 188.622559 29.984375 L 187.215332 36.000000 L 186.270020 36.000000 L 185.308594 32.702148 L 184.352539 36.000000 L 183.407227 36.000000 Z " fill="rgb(0, 0, 0)" fill-opacity="1.000000" />
<path d="M 203.687500 33.142578 Q 203.687500 34.657227 204.998047 35.409180 Q 205.653320 35.790527 206.308594 35.790527 Q 206.963867 35.790527 207.619141 35.409180 Q 208.935059 34.651855 208.935059 33.142578 Q 208.935059 31.633301 207.619141 30.875977 Q 206.963867 30.494629 206.308594 30.494629 Q 205.653320 30.494629 204.998047 30.875977 Q 203.687500 31.627930 203.687500 33.142578 Z M 203.032227 33.142578 Q 203.032227 31.251953 204.670410 30.306641 Q 205.486816 29.833984 206.308594 29.833984 Q 207.125000 29.833984 207.946777 30.306641 Q 209.590332 31.251953 209.590332 33.142578 Q 209.590332 35.033203 207.946777 35.978516 Q 207.125000 36.451172 206.308594 36.451172 Q 205.486816 36.451172 204.670410 35.978516 Q 203.032227 35.033203 203.032227 33.142578 Z " fill="rgb(0, 0, 0)" fill-opacity="1.000000" />
<path d="M 209.892578 33.335938 L 209.892578 32.412109 L 216.729980 32.412109 L 216.729980 33.335938 Z " fill="rgb(0, 0, 0)" fill-opacity="1.000000" />
<path d="M 216.892578 33.335938 L 216.892578 32.412109 L 223.729980 32.412109 L 223.729980 33.335938 Z " fill="rgb(0, 0, 0)" fill-opacity="1.000000" />
<path d="M 227.297852 28.276367 L 227.297852 29.984375 L 229.542969 29.984375 L 229.542969 30.752441 L 227.297852 30.752441 L 227.297852 34.018066 Q 227.297852 34.684082 227.550293 34.947266 Q 227.802734 35.210449 228.431152 35.210449 L 229.542969 35.210449 L 229.542969 36.000000 L 228.334473 36.000000 Q 227.222656 36.000000 226.766113 35.554199 Q 226.309570 35.108398 226.309570 34.018066 L 226.309570 30.752441 L 224.703613 30.752441 L 224.703613 29.984375 L 226.309570 29.984375 L 226.309570 28.276367 Z " fill="rgb(0, 0, 0)" fill-opacity="1.000000" />
<path d="M 234.308594 30.677246 Q 233.556641 30.677246 233.169922 31.262695 Q 232.783203 31.848145 232.783203 32.997559 Q 232.783203 34.141602 233.169922 34.729736 Q 233.556641 35.317871 234.308594 35.317871 Q 235.065918 35.317871 235.452637 34.729736 Q 235.839355 34.141602 235.839355 32.997559 Q 235.839355 31.848145 235.452637 31.262695 Q 235.065918 30.677246 234.308594 30.677246 Z M 234.308594 29.839355 Q 235.560059 29.839355 236.223389 30.650391 Q 236.886719 31.461426 236.886719 32.997559 Q 236.886719 34.539062 236.226074 35.347412 Q 235.565430 36.155762 234.308594 36.155762 Q 233.057129 36.155762 232.396484 35.347412 Q 231.735840 34.539062 231.735840 32.997559 Q 231.735840 31.461426 232.396484 30.650391 Q 233.057129 29.839355 234.308594 29.839355 Z " fill="rgb(0, 0, 0)" fill-opacity="1.000000" />
<path d="M 237.892578 33.335938 L 237.892578 32.412109 L 244.729980 32.412109 L 244.729980 33.335938 Z " fill="rgb(0, 0, 0)" fill-opacity="1.000000" />
<path d="M 244.892578 33.335938 L 244.892578 32.412109 L 251.729980 32.412109 L 251.729980 33.335938 Z " fill="rgb(0, 0, 0)" fill-opacity="1.000000" />
<path d="M 252.032227 36.418945 L 252.032227 29.866211 L 258.590332 33.142578 Z " fill="rgb(0, 0, 0)" fill-opacity="1.000000" />
<path d="M 259.687500 33.142578 Q 259.687500 34.657227 260.998047 35.409180 Q 261.653320 35.790527 262.308594 35.790527 Q 262.963867 35.790527 263.619141 35.409180 Q 264.935059 34.651855 264.935059 33.142578 Q 264.935059 31.633301 263.619141 30.875977 Q 262.963867 30.494629 262.308594 30.494629 Q 261.653320 30.494629 260.998047 30.875977 Q 259.687500 31.627930 259.687500 33.142578 Z M 259.032227 33.142578 Q 259.032227 31.251953 260.670410 30.306641 Q 261.486816 29.833984 262.308594 29.833984 Q 263.125000 29.833984 263.946777 30.306641 Q 265.590332 31.251953 265.590332 33.142578 Q 265.590332 35.033203 263.946777 35.978516 Q 263.125000 36.451172 262.308594 36.451172 Q 261.486816 36.451172 260.670410 35.978516 Q 259.032227 35.033203 259.032227 33.142578 Z " fill="rgb(0, 0, 0)" fill-opacity="1.000000" />
<path d="M 285.435547 28.254883 L 285.435547 29.355957 Q 284.941406 29.039062 284.444580 28.877930 Q 283.947754 28.716797 283.442871 28.716797 Q 282.674805 28.716797 282.229004 29.073975 Q 281.783203 29.431152 281.783203 30.038086 Q 281.783203 30.569824 282.075928 30.849121 Q 282.368652 31.128418 283.168945 31.316406 L 283.738281 31.445312 Q 284.866211 31.708496 285.381836 32.272461 Q 285.897461 32.836426 285.897461 33.808594 Q 285.897461 34.952637 285.188477 35.554199 Q 284.479492 36.155762 283.125977 36.155762 Q 282.562012 36.155762 281.992676 36.034912 Q 281.423340 35.914062 280.848633 35.672363 L 280.848633 34.517578 Q 281.466309 34.909668 282.016846 35.092285 Q 282.567383 35.274902 283.125977 35.274902 Q 283.947754 35.274902 284.404297 34.906982 Q 284.860840 34.539062 284.860840 33.878418 Q 284.860840 33.276855 284.546631 32.959961 Q 284.232422 32.643066 283.453613 32.471191 L 282.873535 32.336914 Q 281.756348 32.084473 281.251465 31.574219 Q 280.746582 31.063965 280.746582 30.204590 Q 280.746582 29.130371 281.468994 28.483154 Q 282.191406 27.835938 283.389160 27.835938 Q 283.851074 27.835938 284.361328 27.940674 Q 284.871582 28.045410 285.435547 28.254883 Z " fill="rgb(0, 0, 0)" fill-opacity="1.000000" />
<path d="M 288.697266 30.005859 L 291.227051 30.005859 L 291.227051 35.231934 L 293.187500 35.231934 L 293.187500 36.000000 L 288.278320 36.000000 L 288.278320 35.231934 L 290.238770 35.231934 L 290.238770 30.773926 L 288.697266 30.773926 Z M 290.238770 27.669434 L 291.227051 27.669434 L 291.227051 28.915527 L 290.238770 28.915527 Z " fill="rgb(0, 0, 0)" fill-opacity="1.000000" />
<path d="M 299.645020 32.272461 L 299.645020 36.000000 L 298.651367 36.000000 L 298.651367 32.272461 Q 298.651367 31.461426 298.366699 31.080078 Q 298.082031 30.698730 297.475098 30.698730 Q 296.782227 30.698730 296.408936 31.190186 Q 296.035645 31.681641 296.035645 32.600098 L 296.035645 36.000000 L 295.047363 36.000000 L 295.047363 29.984375 L 296.035645 29.984375 L 296.035645 30.886719 Q 296.298828 30.371094 296.750000 30.105225 Q 297.201172 29.839355 297.818848 29.839355 Q 298.737305 29.839355 299.191162 30.443604 Q 299.645020 31.047852 299.645020 32.272461 Z " fill="rgb(0, 0, 0)" fill-opacity="1.000000" />
<path d="M 302.267578 27.642578 L 303.288086 27.642578 L 303.288086 32.481934 L 305.882324 29.984375 L 307.085449 29.984375 L 304.716797 32.250977 L 307.456055 36.000000 L 306.247559 36.000000 L 304.023926 32.895508 L 303.288086 33.588379 L 303.288086 36.000000 L 302.267578 36.000000 Z " fill="rgb(0, 0, 0)" fill-opacity="1.000000" />
<path d="M 324.878906 39.319336 L 324.878906 25.300781 L 325.738281 25.300781 L 325.738281 39.319336 Z " fill="rgb(0, 0, 0)" fill-opacity="1.000000" />
<path d="M 338.878906 39.319336 L 338.878906 25.300781 L 339.738281 25.300781 L 339.738281 39.319336 Z " fill="rgb(0, 0, 0)" fill-opacity="1.000000" />
<path d="M 16.878906 26.319336 L 16.878906 19.412109 L 20.729980 19.412109 L 20.729980 20.335938 L 17.738281 20.335938 L 17.738281 26.319336 Z " fill="rgb(0, 0, 0)" fill-opacity="1.000000" />
<path d="M 20.892578 20.335938 L 20.892578 19.412109 L 27.729980 19.412109 L 27.729980 20.335938 Z " fill="rgb(0, 0, 0)" fill-opacity="1.000000" />
<path d="M 27.892578 20.335938 L 27.892578 19.412109 L 34.729980 19.412109 L 34.729980 20.335938 Z " fill="rgb(0, 0, 0)" fill-opacity="1.000000" />
<path d="M 34.892578 20.335938 L 34.892578 19.412109 L 41.729980 19.412109 L 41.729980 20.335938 Z " fill="rgb(0, 0, 0)" fill-opacity="1.000000" />
<path d="M 41.892578 20.335938 L 41.892578 19.412109 L 48.729980 19.412109 L 48.729980 20.335938 Z " fill="rgb(0, 0, 0)" fill-opacity="1.000000" />
<path d="M 48.892578 20.335938 L 48.892578 19.412109 L 55.729980 19.412109 L 55.729980 20.335938 Z " fill="rgb(0, 0, 0)" fill-opacity="1.000000" />
<path d="M 55.892578 20.335938 L 55.892578 19.412109 L 62.729980 19.412109 L 62.729980 20.335938 Z " fill="rgb(0, 0, 0)" fill-opacity="1.000000" />
<path d="M 62.892578 20.335938 L 62.892578 19.412109 L 69.729980 19.412109 L 69.729980 20.335938 Z " fill="rgb(0, 0, 0)" fill-opacity="1.000000" />
<path d="M 69.892578 20.335938 L 69.892578 19.412109 L 76.729980 19.412109 L 76.729980 20.335938 Z " fill="rgb(0, 0, 0)" fill-opacity="1.000000" />
<path d="M 79.878906 26.319336 L 79.878906 20.335938 L 76.892578 20.335938 L 76.892578 19.412109 L 80.738281 19.412109 L 80.738281 26.319336 Z " fill="rgb(0, 0, 0)" fill-opacity="1.000000" />
<path d="M 142.878906 26.319336 L 142.878906 19.412109 L 146.729980 19.412109 L 146.729980 20.335938 L 143.738281 20.335938 L 143.738281 26.319336 Z " fill="rgb(0, 0, 0)" fill-opacity="1.000000" />
<path d="M 146.892578 20.335938 L 146.892578 19.412109 L 153.729980 19.412109 L 153.729980 20.335938 Z " fill="rgb(0, 0, 0)" fill-opacity="1.000000" />
<path d="M 153.892578 20.335938 L 153.892578 19.412109 L 160.729980 19.412109 L 160.729980 20.335938 Z " fill="rgb(0, 0, 0)" fill-opacity="1.000000" />
<path d="M 160.892578 20.335938 L 160.892578 19.412109 L 167.729980 19.412109 L 167.729980 20.335938 Z " fill="rgb(0, 0, 0)" fill-opacity="1.000000" />
<path d="M 167.892578 20.335938 L 167.892578 19.412109 L 174.729980 19.412109 L 174.729980 20.335938 Z " fill="rgb(0, 0, 0)" fill-opacity="1.000000" />
<path d="M 174.892578 20.335938 L 174.892578 19.412109 L 181.729980 19.412109 L 181.729980 20.335938 Z " fill="rgb(0, 0, 0)" fill-opacity="1.000000" />
<path d="M 181.892578 20.335938 L 181.892578 19.412109 L 188.729980 19.412109 L 188.729980 20.335938 Z " fill="rgb(0, 0, 0)" fill-opacity="1.000000" />
<path d="M 188.892578 20.335938 L 188.892578 19.412109 L 195.729980 19.412109 L 195.729980 20.335938 Z " fill="rgb(0, 0, 0)" fill-opacity="1.000000" />
<path d="M 195.892578 20.335938 L 195.892578 19.412109 L 202.729980 19.412109 L 202.729980 20.335938 Z " fill="rgb(0, 0, 0)" fill-opacity="1.000000" />
<path d="M 205.878906 26.319336 L 205.878906 20.335938 L 202.892578 20.335938 L 202.892578 19.412109 L 206.738281 19.412109 L 206.738281 26.319336 Z " fill="rgb(0, 0, 0)" fill-opacity="1.000000" />
<path d="M 261.878906 26.319336 L 261.878906 19.412109 L 265.729980 19.412109 L 265.729980 20.335938 L 262.738281 20.335938 L 262.738281 26.319336 Z " fill="rgb(0, 0, 0)" fill-opacity="1.000000" />
<path d="M 265.892578 20.335938 L 265.892578 19.412109 L 272.729980 19.412109 L 272.729980 20.335938 Z " fill="rgb(0, 0, 0)" fill-opacity="1.000000" />
<path d="M 272.892578 20.335938 L 272.892578 19.412109 L 279.729980 19.412109 L 279.729980 20.335938 Z " fill="rgb(0, 0, 0)" fill-opacity="1.000000" />
<path d="M 279.892578 20.335938 L 279.892578 19.412109 L 286.729980 19.412109 L 286.729980 20.335938 Z " fill="rgb(0, 0, 0)" fill-opacity="1.000000" />
<path d="M 286.892578 20.335938 L 286.892578 19.412109 L 293.729980 19.412109 L 293.729980 20.335938 Z " fill="rgb(0, 0, 0)" fill-opacity="1.000000" />
<path d="M 293.892578 20.335938 L 293.892578 19.412109 L 300.729980 19.412109 L 300.729980 20.335938 Z " fill="rgb(0, 0, 0)" fill-opacity="1.000000" />
<path d="M 300.892578 20.335938 L 300.892578 19.412109 L 307.729980 19.412109 L 307.729980 20.335938 Z " fill="rgb(0, 0, 0)" fill-opacity="1.000000" />
<path d="M 307.892578 20.335938 L 307.892578 19.412109 L 314.729980 19.412109 L 314.729980 20.335938 Z " fill="rgb(0, 0, 0)" fill-opacity="1.000000" />
<path d="M 314.892578 20.335938 L 314.892578 19.412109 L 321.729980 19.412109 L 321.729980 20.335938 Z " fill="rgb(0, 0, 0)" fill-opacity="1.000000" />
<path d="M 324.878906 26.319336 L 324.878906 20.335938 L 321.892578 20.335938 L 321.892578 19.412109 L 325.738281 19.412109 L 325.738281 26.319336 Z " fill="rgb(0, 0, 0)" fill-opacity="1.000000" />
<path d="M 13.892578 7.335938 L 13.892578 6.412109 L 20.729980 6.412109 L 20.729980 7.335938 Z " fill="rgb(0, 0, 0)" fill-opacity="1.000000" />
<path d="M 27.892578 7.335938 L 27.892578 6.412109 L 34.729980 6.412109 L 34.729980 7.335938 Z " fill="rgb(0, 0, 0)" fill-opacity="1.000000" />
<path d="M 41.892578 7.335938 L 41.892578 6.412109 L 48.729980 6.412109 L 48.729980 7.335938 Z " fill="rgb(0, 0, 0)" fill-opacity="1.000000" />
<path d="M 55.892578 7.335938 L 55.892578 6.412109 L 62.729980 6.412109 L 62.729980 7.335938 Z " fill="rgb(0, 0, 0)" fill-opacity="1.000000" />
<path d="M 69.892578 7.335938 L 69.892578 6.412109 L 76.729980 6.412109 L 76.729980 7.335938 Z " fill="rgb(0, 0, 0)" fill-opacity="1.000000" />
<path d="M 83.892578 7.335938 L 83.892578 6.412109 L 90.729980 6.412109 L 90.729980 7.335938 Z " fill="rgb(0, 0, 0)" fill-opacity="1.000000" />
<path d="M 97.892578 7.335938 L 97.892578 6.412109 L 104.729980 6.412109 L 104.729980 7.335938 Z " fill="rgb(0, 0, 0)" fill-opacity="1.000000" />
<path d="M 111.892578 7.335938 L 111.892578 6.412109 L 118.729980 6.412109 L 118.729980 7.335938 Z " fill="rgb(0, 0, 0)" fill-opacity="1.000000" />
<path d="M 125.892578 7.335938 L 125.892578 6.412109 L 132.729980 6.412109 L 132.729980 7.335938 Z " fill="rgb(0, 0, 0)" fill-opacity="1.000000" />
<path d="M 139.892578 7.335938 L 139.892578 6.412109 L 146.729980 6.412109 L 146.729980 7.335938 Z " fill="rgb(0, 0, 0)" fill-opacity="1.000000" />
<path d="M 153.892578 7.335938 L 153.892578 6.412109 L 160.729980 6.412109 L 160.729980 7.335938 Z " fill="rgb(0, 0, 0)" fill-opacity="1.000000" />
<path d="M 167.892578 7.335938 L 167.892578 6.412109 L 174.729980 6.412109 L 174.729980 7.335938 Z " fill="rgb(0, 0, 0)" fill-opacity="1.000000" />
<path d="M 181.892578 7.335938 L 181.892578 6.412109 L 188.729980 6.412109 L 188.729980 7.335938 Z " fill="rgb(0, 0, 0)" fill-opacity="1.000000" />
<path d="M 195.892578 7.335938 L 195.892578 6.412109 L 202.729980 6.412109 L 202.729980 7.335938 Z " fill="rgb(0, 0, 0)" fill-opacity="1.000000" />
<path d="M 209.892578 7.335938 L 209.892578 6.412109 L 216.729980 6.412109 L 216.729980 7.335938 Z " fill="rgb(0, 0, 0)" fill-opacity="1.000000" />
<path d="M 223.892578 7.335938 L 223.892578 6.412109 L 230.729980 6.412109 L 230.729980 7.335938 Z " fill="rgb(0, 0, 0)" fill-opacity="1.000000" />
<path d="M 237.892578 7.335938 L 237.892578 6.412109 L 244.729980 6.412109 L 244.729980 7.335938 Z " fill="rgb(0, 0, 0)" fill-opacity="1.000000" />
<path d="M 251.892578 7.335938 L 251.892578 6.412109 L 258.729980 6.412109 L 258.729980 7.335938 Z " fill="rgb(0, 0, 0)" fill-opacity="1.000000" />
<path d="M 265.892578 7.335938 L 265.892578 6.412109 L 272.729980 6.412109 L 272.729980 7.335938 Z " fill="rgb(0, 0, 0)" fill-opacity="1.000000" />
<path d="M 279.892578 7.335938 L 279.892578 6.412109 L 286.729980 6.412109 L 286.729980 7.335938 Z " fill="rgb(0, 0, 0)" fill-opacity="1.000000" />
<path d="M 293.892578 7.335938 L 293.892578 6.412109 L 300.729980 6.412109 L 300.729980 7.335938 Z " fill="rgb(0, 0, 0)" fill-opacity="1.000000" />
<path d="M 307.892578 7.335938 L 307.892578 6.412109 L 314.729980 6.412109 L 314.729980 7.335938 Z " fill="rgb(0, 0, 0)" fill-opacity="1.000000" />
<path d="M 321.892578 7.335938 L 321.892578 6.412109 L 328.729980 6.412109 L 328.729980 7.335938 Z " fill="rgb(0, 0, 0)" fill-opacity="1.000000" />
<path d="M 338.878906 13.319336 L 338.878906 7.335938 L 335.892578 7.335938 L 335.892578 6.412109 L 339.738281 6.412109 L 339.738281 13.319336 Z " fill="rgb(0, 0, 0)" fill-opacity="1.000000" />
</svg>